# xmcd
#
# Track frame offsets:
# 150
# 18485
# 38747
# 56914
# 72187
# 83445
# 97205
# 107407
# 118435
# 130987
# 146255
# 158717
#
# Disc length: 2361 seconds
#
#
# Revision: 0
# Processed by: cddbd v1.5.1PL0 Copyright (c) Steve Scherf et al.
# Submitted via: FreeRIP 2.93 
#
DISCID=a109370c
DTITLE=Various Artist - To nejlepsi z ceske country
DYEAR=1900
DGENRE=
TTITLE0=O Pane nas
TTITLE1=Bowery street
TTITLE2=Jizni eskandrova
TTITLE3=Malajka
TTITLE4=Vuz do Tenessee
TTITLE5=Strom vanocni
TTITLE6=Dve Rusky
TTITLE7=Rodne udoli
TTITLE8=Tam za divokou rekou
TTITLE9=Nad vodou svita
TTITLE10=Co nevidet se sejdem
TTITLE11=Az me andele
EXTD=
EXTT0=Martinova
EXTT1=Bobek
EXTT2=Hlucha ucha
EXTT3=Linhart
EXTT4=Hofman
EXTT5=Tucny
EXTT6=Mladek
EXTT7=Pacifik
EXTT8=Zelenaci
EXTT9=KTO
EXTT10=Cervanek
EXTT11=Spaleny
PLAYORDER=
